REM MD5 041abcc8c92fb28a701e1dc642c6ea85
FILE "Shadow Madness (USA) (Disc 1).bin" BINARY
  TRACK 01 MODE2/2352
    INDEX 01 00:00:00
  TRACK 02 AUDIO
    INDEX 00 63:19:53
    INDEX 01 63:21:53
  TRACK 03 AUDIO
    INDEX 00 67:26:39
    INDEX 01 67:28:39
REM LEADOUT 70:36:16
